<svg xmlns="http://www.w3.org/2000/svg" xmlns:xlink="http://www.w3.org/1999/xlink" fill="none" version="1.1" width="24" height="24" viewBox="0 0 24 24"><defs><clipPath id="master_svg0_142_9821"><rect x="1" y="0.69140625" width="22" height="22" rx="0"/></clipPath></defs><g style="mix-blend-mode:passthrough"><g style="opacity:0;mix-blend-mode:passthrough"><rect x="0" y="0" width="24" height="24" rx="0" fill="#D8D8D8" fill-opacity="1"/></g><g clip-path="url(#master_svg0_142_9821)"><g><path d="M20.430434375,8.348588046875001L12.000004375,2.072998046875L3.569531375,8.348588046875001C3.047461375,8.735298046875,2.740234375,9.347608046875,2.740234375,9.998588046875L2.740234375,19.254098046875C2.740234375,20.390598046875,3.6619143750000003,21.312298046875,4.798434374999999,21.312298046875L19.201534375,21.312298046875C20.338134375,21.312298046875,21.259734375,20.390598046875,21.259734375,19.254098046875L21.259734375,9.998588046875C21.259734375,9.347608046875,20.952534375,8.735298046875,20.430434375,8.348588046875001Z" fill="#BCC3C8" fill-opacity="1"/></g><g style="mix-blend-mode:passthrough"><path d="M7,17C7,17.55228,7.447715,18,8,18L16,18C16.55229,18,17,17.55228,17,17C17,16.447715,16.55229,16,16,16L8,16C7.447715,16,7,16.447715,7,17Z" fill="#FEFEFE" fill-opacity="1"/></g></g></g></svg>