<svg xmlns="http://www.w3.org/2000/svg" xmlns:xlink="http://www.w3.org/1999/xlink" fill="none" version="1.1" width="24" height="24" viewBox="0 0 24 24"><g style="mix-blend-mode:passthrough"><g style="opacity:0;mix-blend-mode:passthrough"><rect x="0" y="0" width="24" height="24" rx="0" fill="#D8D8D8" fill-opacity="1"/></g><g transform="matrix(-1,0,0,1,44.356689453125,0)"><path d="M39.6019447265625,18.98539765625L39.6016447265625,18.98499765625C39.5260447265625,18.90169765625,39.5297447265625,18.77339765625,39.6064447265625,18.69099765625C41.2440447265625,16.93009765625,42.244144726562496,14.58089765625,42.2420447265625,12.00022765625L42.2420447265625,11.99996765625C42.2419447265625,6.53377765625,37.7500447265625,2.10009765625,32.210144726562504,2.10009765625C26.6702847265625,2.10009765625,22.1783447265625,6.53385765625,22.1783447265625,12.00009765625C22.1783447265625,17.46629765625,26.6702847265625,21.90009765625,32.210144726562504,21.90009765625L32.340044726562496,21.90009765625L32.3401447265625,21.90009765625L32.3402447265625,21.90009765625L36.9639447265625,21.89519765625L36.9641447265625,21.89519765625L40.2296447265625,21.89519765625C41.0103447265625,21.89519765625,41.4057447265625,20.97509765625,40.8813447265625,20.39669765625L39.6019447265625,18.98539765625ZM29.078364726562498,13.25369765625C29.9079347265625,13.25369765625,30.578364726562498,12.58109765625,30.578364726562498,11.75365765625C30.578364726562498,10.92621765625,29.9058047265625,10.25365765625,29.078364726562498,10.25365765625C28.250924726562502,10.25365765625,27.578364726562498,10.92621765625,27.578364726562498,11.75365765625C27.578364726562498,12.58109765625,28.2488047265625,13.25369765625,29.078364726562498,13.25369765625ZM35.413244726562496,13.25369765625C36.2427447265625,13.25369765625,36.913244726562496,12.58109765625,36.913244726562496,11.75365765625C36.913244726562496,10.92621765625,36.2406447265625,10.25365765625,35.413244726562496,10.25365765625C34.5836447265625,10.25365765625,33.913244726562496,10.92621765625,33.913244726562496,11.75365765625C33.913244726562496,12.58109765625,34.5857447265625,13.25369765625,35.413244726562496,13.25369765625Z" fill-rule="evenodd" fill="#BCC3C8" fill-opacity="1"/></g></g></svg>