<svg xmlns="http://www.w3.org/2000/svg" xmlns:xlink="http://www.w3.org/1999/xlink" fill="none" version="1.1" width="24" height="24" viewBox="0 0 24 24"><defs><clipPath id="master_svg0_142_9859"><rect x="0" y="0" width="24" height="24" rx="0"/></clipPath></defs><g style="mix-blend-mode:passthrough"><g style="opacity:0;mix-blend-mode:passthrough"><rect x="0" y="0" width="24" height="24" rx="0" fill="#D8D8D8" fill-opacity="1"/></g><g clip-path="url(#master_svg0_142_9859)"><g><path d="M19,3C19.5523,3,20,3.447715,20,4L20,5L21.999,5C22.506,5.00007,22.9327,5.37951,22.992,5.883L22.999,6L22.999,9C22.9991,10.588560000000001,21.7608,11.90181,20.175,11.995L19.999,12L19.417,12C18.3303,14.687,15.8756,16.5763,13,16.939L13,19L17,19C17.5523,19,18,19.4477,18,20C18,20.5523,17.5523,21,17,21L7,21C6.44771,21,6,20.5523,6,20C6,19.4477,6.44772,19,7,19L11,19L11,16.938000000000002C8.124839999999999,16.575699999999998,5.67024,14.6872,4.583,12.001L4,12C2.41144,12.00009,1.0981952,10.76182,1.00499981,9.176L1,9L1,6C1.0000669479,5.49302,1.379507,5.06632,1.883,5.007L2,5L4,5L4,4C4,3.447715,4.44772,3,5,3L19,3ZM4,9L4,7L3,7L3,9C3.00007,9.50698,3.37951,9.933679999999999,3.883,9.993L4,10L4.061999999999999,10C4.0206,9.66828,3.99989,9.334299999999999,4,9ZM20.998,7L20,7L20,9C20,9.338000000000001,19.979,9.672,19.938,10L19.998,10C20.5054,10.000440000000001,20.9326,9.62087,20.992,9.117L20.999,9L20.998,7Z" fill="#BCC3C8" fill-opacity="1"/></g></g></g></svg>