<svg xmlns="http://www.w3.org/2000/svg" xmlns:xlink="http://www.w3.org/1999/xlink" fill="none" version="1.1" width="24" height="24" viewBox="0 0 24 24"><defs><clipPath id="master_svg0_142_01474"><rect x="0" y="0" width="24" height="24" rx="0"/></clipPath></defs><g style="mix-blend-mode:passthrough"><g style="opacity:0;mix-blend-mode:passthrough"><rect x="0" y="0" width="24" height="24" rx="0" fill="#D8D8D8" fill-opacity="1"/></g><g clip-path="url(#master_svg0_142_01474)"><g><path d="M20.565050708007814,20.44815447998047Q16.747150708007812,18.508954479980467,14.993450708007812,18.38405447998047L14.993450708007812,17.827654479980467C17.79945070800781,16.63425447998047,19.565250708007813,13.72755447998047,19.565250708007813,10.328914479980469C19.565250708007813,5.8740144799804686,16.146450708007812,2.2536544799804688,11.945570708007812,2.2536544799804688C7.7446707080078125,2.2536544799804688,4.325880708007812,5.878044479980469,4.325880708007812,10.328914479980469C4.325880708007812,13.76785447998047,6.140100708007813,16.702854479980466,9.002520708007813,17.86795447998047L9.002520708007813,18.38405447998047L8.966230708007814,18.38405447998047Q7.337470708007812,18.464654479980467,3.4510317080078123,20.440154479980468Q2.9430529080078127,20.86745447998047,2.9994949380078126,21.189954479980468C3.0559370080078123,21.51255447998047,3.3462107080078125,21.75035447998047,3.6808317080078123,21.75035447998047L9.917690708007813,21.75035447998047L14.074250708007812,21.75035447998047L20.30705070800781,21.75035447998047C20.641650708007813,21.75035447998047,20.923950708007812,21.52055447998047,20.98845070800781,21.202054479980468Q21.052950708007813,20.883554479980468,20.565050708007814,20.44815447998047Z" fill="#BCC3C8" fill-opacity="1"/></g></g></g></svg>